<svg width="249" height="249" viewBox="0 0 249 249" fill="none" xmlns="http://www.w3.org/2000/svg">
<path d="M124.998 243.522C190.457 243.522 243.522 190.457 243.522 124.998C243.522 59.539 190.457 6.474 124.998 6.474C59.539 6.474 6.474 59.539 6.474 124.998C6.474 190.457 59.539 243.522 124.998 243.522Z" fill="#F3F2F2" fill-opacity="0.33" stroke="black" stroke-width="4"/>
<path d="M204.676 91.132H199.7V49.304H204.676V91.132Z" fill="black" stroke="black"/>
<path d="M44.324 156.872L49.3 156.872L49.3 198.7L44.324 198.7L44.324 156.872Z" fill="black" stroke="black"/>
<path d="M204.676 49.304L204.676 54.28L132.968 54.28L132.968 49.304L204.676 49.304Z" fill="black" stroke="black"/>
<path d="M44.324 198.7L44.324 193.724L116.032 193.724L116.032 198.7L44.324 198.7Z" fill="black" stroke="black"/>
<path d="M204.676 162.844H199.7V149.9H204.676V162.844Z" fill="black" stroke="black"/>
<path d="M44.324 85.16L49.3 85.16L49.3 99.1L44.324 99.1L44.324 85.16Z" fill="black" stroke="black"/>
<path d="M132.968 158.86V153.884H203.68V158.86H132.968Z" fill="black" stroke="black"/>
<path d="M116.032 90.14L116.032 94.12L45.32 94.12L45.32 90.14L116.032 90.14Z" fill="black" stroke="black"/>
<path d="M132.968 49.304L137.944 49.304L137.944 198.7L132.968 198.7L132.968 49.304Z" fill="black" stroke="black"/>
<path d="M116.032 198.7L111.056 198.7L111.056 49.304L116.032 49.304L116.032 198.7Z" fill="black" stroke="black"/>
</svg>
